<svg width="24" height="24" viewBox="0 0 24 24" fill="none" xmlns="http://www.w3.org/2000/svg">
<path d="M13.25 5.25H6.25C5.69772 5.25 5.25 5.69772 5.25 6.25V13.25C5.25 13.8023 5.69772 14.25 6.25 14.25H13.25C13.8023 14.25 14.25 13.8023 14.25 13.25V6.25C14.25 5.69772 13.8023 5.25 13.25 5.25Z" stroke-width="1.5" stroke="currentColor"/>
<path d="M17.75 9.75H10.75C10.1977 9.75 9.75 10.1977 9.75 10.75V17.75C9.75 18.3023 10.1977 18.75 10.75 18.75H17.75C18.3023 18.75 18.75 18.3023 18.75 17.75V10.75C18.75 10.1977 18.3023 9.75 17.75 9.75Z" stroke-width="1.5" stroke="currentColor"/>
</svg>
