<svg width="24" height="24" viewBox="0 0 24 24" fill="none" xmlns="http://www.w3.org/2000/svg">
<path d="M18 5.25V14.25C18 15.8413 17.3679 17.3674 16.2426 18.4926C15.1174 19.6179 13.5913 20.25 12 20.25C10.4087 20.25 8.88258 19.6179 7.75736 18.4926C6.63214 17.3674 6 15.8413 6 14.25V9.75C6 8.55653 6.47411 7.41193 7.31802 6.56802C8.16193 5.72411 9.30653 5.25 10.5 5.25C11.6935 5.25 12.8381 5.72411 13.682 6.56802C14.5259 7.41193 15 8.55653 15 9.75V14.25C15 15.0456 14.6839 15.8087 14.1213 16.3713C13.5587 16.9339 12.7956 17.25 12 17.25C11.2044 17.25 10.4413 16.9339 9.87868 16.3713C9.31607 15.8087 9 15.0456 9 14.25V9.75C9 9.35217 9.15804 8.97064 9.43934 8.68934C9.72064 8.40804 10.1022 8.25 10.5 8.25C10.8978 8.25 11.2794 8.40804 11.5607 8.68934C11.842 8.97064 12 9.35218 12 9.75V14" stroke-width="1.5" stroke-linecap="round" stroke="currentColor"/>
</svg>
