<svg width="24" height="24" viewBox="0 0 24 24" fill="none" xmlns="http://www.w3.org/2000/svg">
<path d="M6.25 10.75H16.25C16.8023 10.75 17.25 10.3023 17.25 9.75V6.25C17.25 5.69772 16.8023 5.25 16.25 5.25H6.25C5.69772 5.25 5.25 5.69772 5.25 6.25V9.75C5.25 10.3023 5.69772 10.75 6.25 10.75Z" stroke-width="1.5" stroke="currentColor"/>
<path d="M6.25 18.75H16.25C16.8023 18.75 17.25 18.3023 17.25 17.75V14.25C17.25 13.6977 16.8023 13.25 16.25 13.25H6.25C5.69772 13.25 5.25 13.6977 5.25 14.25V17.75C5.25 18.3023 5.69772 18.75 6.25 18.75Z" stroke-width="1.5" stroke="currentColor"/>
<path d="M8 8H8.01" stroke-width="1.5" stroke-linecap="round" stroke-linejoin="round" stroke="currentColor"/>
<path d="M8 16H8.01" stroke-width="1.5" stroke-linecap="round" stroke-linejoin="round" stroke="currentColor"/>
</svg>
